<svg id="Layer_1" data-name="Layer 1" xmlns="http://www.w3.org/2000/svg" xmlns:xlink="http://www.w3.org/1999/xlink" viewBox="0 0 218.76 75.8"><defs><style>.cls-1{fill:url(#White_Black);filter:url(#luminosity-invert);}.cls-2{fill:#b9282e;}.cls-3{mask:url(#mask);}.cls-4{fill:#fff;}</style><linearGradient id="White_Black" x1="57.54" y1="26.98" x2="28.19" y2="26.75" gradientUnits="userSpaceOnUse"><stop offset="0" stop-color="#fff"/><stop offset="1" stop-color="#231f20"/></linearGradient><filter id="luminosity-invert" filterUnits="userSpaceOnUse" color-interpolation-filters="sRGB"><feColorMatrix values="-1 0 0 0 1 0 -1 0 0 1 0 0 -1 0 1 0 0 0 1 0"/></filter><mask id="mask" x="11.23" y="18.44" width="34.17" height="16.62" maskUnits="userSpaceOnUse"><rect class="cls-1" x="11.23" y="18.44" width="34.17" height="16.62"/></mask></defs><circle class="cls-2" cx="39.05" cy="37.9" r="36.95"/><path d="M96,37.9l8-17.89H108l8,17.89h-4.34l-6.57-15.79h1.66L100.22,37.9Zm4-3.83,1-3.15h9.25l1.08,3.15Z"/><path d="M114.7,27.53V24.46h9.54v3.07Zm2.12,10.37v-14a5,5,0,0,1,1.38-3.73,5.34,5.34,0,0,1,3.94-1.38,8.35,8.35,0,0,1,1.66.17,4.14,4.14,0,0,1,1.38.54l-1.05,2.91a2.65,2.65,0,0,0-.74-.35,2.73,2.73,0,0,0-.87-.13,1.8,1.8,0,0,0-1.34.48,2.18,2.18,0,0,0-.47,1.54v1.28l.13,1.68v11Z"/><path d="M125,37.9V24.15h3.81v3.91l-.54-1.15a4.47,4.47,0,0,1,2-2.21,6.71,6.71,0,0,1,3.3-.75v3.7a4.14,4.14,0,0,0-.45-.07,3.07,3.07,0,0,0-.42,0,3.72,3.72,0,0,0-2.68.95,3.82,3.82,0,0,0-1,2.91V37.9Z"/><path d="M136.68,22.24a2.58,2.58,0,0,1-1.81-.64,2.09,2.09,0,0,1-.69-1.59,2.07,2.07,0,0,1,.69-1.58,2.54,2.54,0,0,1,1.81-.64,2.68,2.68,0,0,1,1.8.6,1.94,1.94,0,0,1,.7,1.55,2.19,2.19,0,0,1-.69,1.65A2.54,2.54,0,0,1,136.68,22.24Zm-2,15.66V24.15h4V37.9Z"/><path d="M141.38,37.9V20h8.13a11.27,11.27,0,0,1,5.14,1.12,8.51,8.51,0,0,1,3.47,3.11A8.77,8.77,0,0,1,159.37,29a8.76,8.76,0,0,1-1.25,4.71,8.47,8.47,0,0,1-3.47,3.12,11.4,11.4,0,0,1-5.14,1.11Zm4.17-3.37h3.75a6.73,6.73,0,0,0,3.11-.68,4.84,4.84,0,0,0,2-1.94,5.76,5.76,0,0,0,.73-2.95,5.79,5.79,0,0,0-.73-3,4.94,4.94,0,0,0-2-1.93,6.73,6.73,0,0,0-3.11-.67h-3.75Z"/><path d="M158.86,37.9,166.81,20h4.09l8,17.89h-4.34L168,22.11h1.66L163.1,37.9Zm4-3.83,1-3.15h9.25l1.07,3.15Z"/><path d="M183.21,37.9V23.39h-5.72V20h15.59v3.38h-5.73V37.9Z"/><path d="M191.67,37.9l8-17.89h4.09l8,17.89h-4.34l-6.57-15.79h1.66L195.91,37.9Zm4-3.83,1-3.15H206l1.08,3.15Z"/><path d="M214,22.24a2.58,2.58,0,0,1-1.81-.64,2.09,2.09,0,0,1-.69-1.59,2.07,2.07,0,0,1,.69-1.58,2.54,2.54,0,0,1,1.81-.64,2.68,2.68,0,0,1,1.8.6,1.94,1.94,0,0,1,.7,1.55,2.18,2.18,0,0,1-.68,1.65A2.57,2.57,0,0,1,214,22.24ZM212,37.9V24.15h4V37.9Z"/><path d="M97.16,55.32v-6h.64v6Z"/><path d="M101.71,50.77a2.13,2.13,0,0,1,1,.21,1.44,1.44,0,0,1,.65.64,2.19,2.19,0,0,1,.24,1.08v2.62H103V52.76a1.5,1.5,0,0,0-.36-1.08,1.33,1.33,0,0,0-1-.36,1.74,1.74,0,0,0-.84.19,1.41,1.41,0,0,0-.55.56A2,2,0,0,0,100,53v2.37h-.61V50.81H100v1.24l-.1-.23a1.57,1.57,0,0,1,.69-.77A2.12,2.12,0,0,1,101.71,50.77Z"/><path d="M107.31,50.77a2.13,2.13,0,0,1,1,.21,1.54,1.54,0,0,1,.65.64,2.19,2.19,0,0,1,.24,1.08v2.62h-.61V52.76a1.5,1.5,0,0,0-.36-1.08,1.35,1.35,0,0,0-1-.36,1.74,1.74,0,0,0-.84.19,1.35,1.35,0,0,0-.55.56,1.84,1.84,0,0,0-.19.88v2.37H105V50.81h.58v1.24l-.09-.23a1.59,1.59,0,0,1,.68-.77A2.15,2.15,0,0,1,107.31,50.77Z"/><path d="M112.44,55.37a2.33,2.33,0,0,1-1.18-.3,2.2,2.2,0,0,1-.81-.82,2.36,2.36,0,0,1-.3-1.19,2.31,2.31,0,0,1,.3-1.19,2.1,2.1,0,0,1,.81-.81,2.32,2.32,0,0,1,1.18-.29,2.44,2.44,0,0,1,1.19.29,2.2,2.2,0,0,1,.82.81,2.59,2.59,0,0,1,0,2.38,2.15,2.15,0,0,1-.82.82A2.36,2.36,0,0,1,112.44,55.37Zm0-.55a1.66,1.66,0,0,0,.87-.22,1.6,1.6,0,0,0,.6-.61,2.08,2.08,0,0,0,0-1.86,1.67,1.67,0,0,0-.6-.61,1.79,1.79,0,0,0-1.72,0,1.67,1.67,0,0,0-.6.61A2.08,2.08,0,0,0,111,54a1.62,1.62,0,0,0,1.45.83Z"/><path d="M116.94,55.32l-2-4.51h.64L117.41,55h-.3L119,50.81h.6l-2,4.51Z"/><path d="M121.49,55.37a2.16,2.16,0,0,1-.88-.17,1.27,1.27,0,0,1-.57-.47,1.19,1.19,0,0,1-.2-.68,1.28,1.28,0,0,1,.17-.64,1.11,1.11,0,0,1,.55-.46,2.44,2.44,0,0,1,1-.18h1.55v.46H121.6a1.32,1.32,0,0,0-.9.23.77.77,0,0,0,0,1.19,1.32,1.32,0,0,0,.85.23,1.62,1.62,0,0,0,.89-.23A1.39,1.39,0,0,0,123,54l.14.43a1.53,1.53,0,0,1-.6.71A2,2,0,0,1,121.49,55.37Zm1.56,0v-1l0-.17V52.49a1.19,1.19,0,0,0-.32-.88,1.34,1.34,0,0,0-1-.31,2.31,2.31,0,0,0-.83.15,1.89,1.89,0,0,0-.67.38l-.28-.45a2.29,2.29,0,0,1,.83-.45,3.1,3.1,0,0,1,1-.16,1.92,1.92,0,0,1,1.35.43,1.69,1.69,0,0,1,.48,1.32v2.8Z"/><path d="M124.37,51.32v-.51h2.79v.51Zm2.13,4a1.33,1.33,0,0,1-1-.35,1.3,1.3,0,0,1-.34-1V49.81h.61V54a.9.9,0,0,0,.2.61.76.76,0,0,0,.58.21,1,1,0,0,0,.67-.23l.21.44a1.07,1.07,0,0,1-.43.24A1.82,1.82,0,0,1,126.5,55.37Z"/><path d="M128.66,49.81a.42.42,0,0,1-.32-.13.39.39,0,0,1-.13-.31.38.38,0,0,1,.13-.3.45.45,0,0,1,.32-.12.47.47,0,0,1,.32.12.42.42,0,0,1,.13.3.44.44,0,0,1-.13.31A.41.41,0,0,1,128.66,49.81Zm-.31,5.51V50.81H129v4.51Z"/><path d="M132.29,55.37a2.28,2.28,0,0,1-1.18-.3,2.15,2.15,0,0,1-.82-.82,2.36,2.36,0,0,1-.3-1.19,2.31,2.31,0,0,1,.3-1.19,2.06,2.06,0,0,1,.82-.81,2.27,2.27,0,0,1,1.18-.29,2.47,2.47,0,0,1,1.19.29,2.25,2.25,0,0,1,.81.81,2.51,2.51,0,0,1,0,2.38,2.15,2.15,0,0,1-.82.82A2.33,2.33,0,0,1,132.29,55.37Zm0-.55a1.64,1.64,0,0,0,.86-.22,1.47,1.47,0,0,0,.6-.61,2.08,2.08,0,0,0,0-1.86,1.53,1.53,0,0,0-.6-.61,1.62,1.62,0,0,0-.86-.22,1.62,1.62,0,0,0-1.46.83,2.08,2.08,0,0,0,0,1.86,1.6,1.6,0,0,0,.6.61A1.62,1.62,0,0,0,132.29,54.82Z"/><path d="M137.92,50.77a2.13,2.13,0,0,1,1,.21,1.44,1.44,0,0,1,.65.64,2.19,2.19,0,0,1,.24,1.08v2.62h-.61V52.76a1.5,1.5,0,0,0-.36-1.08,1.35,1.35,0,0,0-1-.36,1.74,1.74,0,0,0-.84.19,1.41,1.41,0,0,0-.55.56,1.84,1.84,0,0,0-.19.88v2.37h-.61V50.81h.58v1.24l-.09-.23a1.57,1.57,0,0,1,.69-.77A2.12,2.12,0,0,1,137.92,50.77Z"/><path d="M145.05,55.37a2.25,2.25,0,0,1-1.16-.3,2,2,0,0,1-.8-.81,2.37,2.37,0,0,1-.29-1.2,2.32,2.32,0,0,1,.29-1.2,2,2,0,0,1,.8-.8,2.25,2.25,0,0,1,1.16-.29,2.19,2.19,0,0,1,1.06.26,2,2,0,0,1,.75.78,2.65,2.65,0,0,1,.28,1.25,2.68,2.68,0,0,1-.28,1.25,1.92,1.92,0,0,1-.74.78A2,2,0,0,1,145.05,55.37Zm0-.55a1.64,1.64,0,0,0,.86-.22,1.56,1.56,0,0,0,.61-.61,2.08,2.08,0,0,0,0-1.86,1.62,1.62,0,0,0-.61-.61,1.77,1.77,0,0,0-1.71,0,1.67,1.67,0,0,0-.6.61,2.08,2.08,0,0,0,0,1.86,1.6,1.6,0,0,0,.6.61A1.63,1.63,0,0,0,145.09,54.82Zm1.7.5V54l.06-.91-.08-.91V49h.61v6.37Z"/><path d="M148.86,55.32V50.81h.59V52l-.06-.22A1.48,1.48,0,0,1,150,51a2.12,2.12,0,0,1,1.11-.27v.59H151a1.45,1.45,0,0,0-1.12.44,1.74,1.74,0,0,0-.41,1.23v2.3Z"/><path d="M152.41,49.81a.41.41,0,0,1-.32-.13.39.39,0,0,1-.13-.31.38.38,0,0,1,.13-.3.44.44,0,0,1,.32-.12.43.43,0,0,1,.31.12.38.38,0,0,1,.13.3.43.43,0,0,1-.12.31A.42.42,0,0,1,152.41,49.81Zm-.31,5.51V50.81h.61v4.51Z"/><path d="M155.35,55.32l-2-4.51H154L155.83,55h-.3l1.86-4.19h.6l-2,4.51Z"/><path d="M159,49.81a.41.41,0,0,1-.32-.13.39.39,0,0,1-.13-.31.38.38,0,0,1,.13-.3A.44.44,0,0,1,159,49a.43.43,0,0,1,.31.12.38.38,0,0,1,.13.3.43.43,0,0,1-.12.31A.41.41,0,0,1,159,49.81Zm-.31,5.51V50.81h.61v4.51Z"/><path d="M163,50.77a2.09,2.09,0,0,1,1,.21,1.51,1.51,0,0,1,.66.64,2.3,2.3,0,0,1,.23,1.08v2.62h-.61V52.76a1.54,1.54,0,0,0-.35-1.08,1.35,1.35,0,0,0-1-.36,1.68,1.68,0,0,0-.84.19,1.35,1.35,0,0,0-.55.56,1.84,1.84,0,0,0-.2.88v2.37h-.61V50.81h.59v1.24l-.1-.23a1.67,1.67,0,0,1,.69-.77A2.15,2.15,0,0,1,163,50.77Z"/><path d="M168.14,55.15a2.37,2.37,0,0,1-1.16-.28,2.09,2.09,0,0,1-.81-.78A2.18,2.18,0,0,1,167,51a2.48,2.48,0,0,1,1.16-.27,2.3,2.3,0,0,1,1.09.25,1.8,1.8,0,0,1,.76.74,2.67,2.67,0,0,1,0,2.38,1.89,1.89,0,0,1-.76.75A2.31,2.31,0,0,1,168.14,55.15Zm.11,1.88a3.88,3.88,0,0,1-1.18-.18,2.32,2.32,0,0,1-.92-.51l.31-.47a2.29,2.29,0,0,0,.78.45,2.8,2.8,0,0,0,1,.17,1.72,1.72,0,0,0,1.26-.4,1.67,1.67,0,0,0,.41-1.24V53.72L170,53l-.06-.77V50.81h.58v4a2.3,2.3,0,0,1-.57,1.72A2.37,2.37,0,0,1,168.25,57Zm-.05-2.42a1.86,1.86,0,0,0,.89-.21,1.57,1.57,0,0,0,.61-.59,1.79,1.79,0,0,0,0-1.72,1.55,1.55,0,0,0-.61-.58,2,2,0,0,0-1.77,0,1.55,1.55,0,0,0-.61.58,1.79,1.79,0,0,0,0,1.72,1.57,1.57,0,0,0,.61.59A1.84,1.84,0,0,0,168.2,54.61Z"/><path d="M174.35,49.81a.42.42,0,0,1-.32-.13.39.39,0,0,1-.13-.31.38.38,0,0,1,.13-.3.45.45,0,0,1,.32-.12.47.47,0,0,1,.32.12.41.41,0,0,1,.12.3.43.43,0,0,1-.12.31A.41.41,0,0,1,174.35,49.81ZM174,55.32V50.81h.61v4.51Z"/><path d="M181.77,50.77a2.06,2.06,0,0,1,1,.21,1.47,1.47,0,0,1,.64.64,2.3,2.3,0,0,1,.23,1.08v2.62H183V52.76a1.59,1.59,0,0,0-.34-1.08,1.27,1.27,0,0,0-1-.36,1.62,1.62,0,0,0-.81.19,1.34,1.34,0,0,0-.52.56,2,2,0,0,0-.19.88v2.37h-.61V52.76a1.54,1.54,0,0,0-.34-1.08,1.27,1.27,0,0,0-1-.36,1.58,1.58,0,0,0-.8.19,1.3,1.3,0,0,0-.53.56,2,2,0,0,0-.19.88v2.37h-.61V50.81h.59V52l-.1-.21a1.57,1.57,0,0,1,.67-.77,2,2,0,0,1,1.09-.28,1.88,1.88,0,0,1,1.12.33,1.58,1.58,0,0,1,.61,1l-.24-.09a1.71,1.71,0,0,1,.7-.89A2,2,0,0,1,181.77,50.77Z"/><path d="M185,57V50.81h.58v1.36l-.06.9.09.91v3Zm2.33-1.62a2,2,0,0,1-1.06-.28,2,2,0,0,1-.75-.78,2.54,2.54,0,0,1-.28-1.25,2.65,2.65,0,0,1,.27-1.25,2,2,0,0,1,.75-.78,2.38,2.38,0,0,1,2.22,0,2.08,2.08,0,0,1,.81.8,2.48,2.48,0,0,1,.29,1.2,2.42,2.42,0,0,1-.29,1.2,2,2,0,0,1-.81.81A2.22,2.22,0,0,1,187.37,55.37Zm-.05-.55a1.62,1.62,0,0,0,.86-.22,1.56,1.56,0,0,0,.61-.61,1.88,1.88,0,0,0,.22-.93,1.84,1.84,0,0,0-.22-.92,1.65,1.65,0,0,0-.61-.62,1.62,1.62,0,0,0-.86-.22,1.67,1.67,0,0,0-.86.22,1.7,1.7,0,0,0-.6.62,1.84,1.84,0,0,0-.22.92,1.88,1.88,0,0,0,.22.93,1.6,1.6,0,0,0,.6.61A1.67,1.67,0,0,0,187.32,54.82Z"/><path d="M191.92,55.37a2.19,2.19,0,0,1-.88-.17,1.27,1.27,0,0,1-.57-.47,1.19,1.19,0,0,1-.2-.68,1.28,1.28,0,0,1,.17-.64A1.16,1.16,0,0,1,191,53a2.47,2.47,0,0,1,1-.18h1.55v.46H192a1.32,1.32,0,0,0-.9.23.73.73,0,0,0-.26.57.74.74,0,0,0,.31.62,1.31,1.31,0,0,0,.84.23,1.62,1.62,0,0,0,.89-.23,1.34,1.34,0,0,0,.54-.69l.14.43a1.42,1.42,0,0,1-.6.71A2,2,0,0,1,191.92,55.37Zm1.56,0v-1l0-.17V52.49a1.15,1.15,0,0,0-.32-.88,1.31,1.31,0,0,0-1-.31,2.31,2.31,0,0,0-.83.15,1.89,1.89,0,0,0-.67.38l-.28-.45a2.29,2.29,0,0,1,.83-.45,3.1,3.1,0,0,1,1-.16,2,2,0,0,1,1.36.43,1.73,1.73,0,0,1,.47,1.32v2.8Z"/><path d="M197.38,55.37a2.38,2.38,0,0,1-1.2-.3,2.18,2.18,0,0,1-.83-.82,2.51,2.51,0,0,1,0-2.38,2.09,2.09,0,0,1,.83-.81,2.37,2.37,0,0,1,1.2-.29,2.33,2.33,0,0,1,1,.22,1.69,1.69,0,0,1,.73.67l-.45.31a1.48,1.48,0,0,0-.58-.51,1.71,1.71,0,0,0-2.23.67,2,2,0,0,0-.22.93,1.94,1.94,0,0,0,.22.93,1.62,1.62,0,0,0,.61.61,1.83,1.83,0,0,0,1.62.06,1.46,1.46,0,0,0,.58-.5l.45.31a1.75,1.75,0,0,1-.73.67A2.34,2.34,0,0,1,197.38,55.37Z"/><path d="M199.43,51.32v-.51h2.79v.51Zm2.13,4a1.32,1.32,0,0,1-1-.35,1.3,1.3,0,0,1-.34-1V49.81h.61V54a.85.85,0,0,0,.2.61.75.75,0,0,0,.58.21,1,1,0,0,0,.67-.23l.21.44a1.07,1.07,0,0,1-.43.24A1.82,1.82,0,0,1,201.56,55.37Z"/><g class="cls-3"><path class="cls-4" d="M42.1,19.09v7a16.37,16.37,0,0,1-2.85,8.25H20.6V19.09Z"/></g><path class="cls-4" d="M42.1,23.87V19.09h3.16A12.25,12.25,0,0,1,57.51,31.34V56.7H42.1V38a16.46,16.46,0,0,0-3.2,3.46l-.16.23A16.79,16.79,0,0,0,37.07,45,16.53,16.53,0,0,0,36,50.86v3.92a1.92,1.92,0,0,1-1.92,1.92H22.52a1.92,1.92,0,0,1-1.92-1.92V43.41a1.92,1.92,0,0,1,1.92-1.92h2.09c.32,0,.64,0,1,0s.65,0,1,0a16.45,16.45,0,0,0,8.7-3.09q.39-.27.75-.57a16.58,16.58,0,0,0,6.1-11.78Z"/><path class="cls-4" d="M58.16,21.15V19.63h-.64v-.14H59v.14h-.64v1.52Zm1.07,0V19.49h.13l.83,1.31h-.07l.82-1.31h.14v1.66h-.16V19.73h0l-.77,1.21h-.08l-.78-1.21h.05v1.42Z"/></svg>