<svg id="Layer_1" data-name="Layer 1" xmlns="http://www.w3.org/2000/svg" viewBox="0 0 218.76 75.8"><defs><style>.cls-1{fill:#fff;}</style></defs><path class="cls-1" d="M95,37.38l8-17.89H107l8,17.89h-4.34l-6.57-15.79h1.66L99.22,37.38Zm4-3.83,1-3.14h9.25l1.08,3.14Z"/><path class="cls-1" d="M113.7,27V23.94h9.54V27Zm2.12,10.37V23.33a5,5,0,0,1,1.38-3.73,5.34,5.34,0,0,1,3.94-1.38,7.67,7.67,0,0,1,1.66.18,3.94,3.94,0,0,1,1.38.53l-1.05,2.91a2.65,2.65,0,0,0-.74-.35,2.73,2.73,0,0,0-.87-.13,1.8,1.8,0,0,0-1.34.48,2.18,2.18,0,0,0-.47,1.54v1.28l.13,1.68v11Z"/><path class="cls-1" d="M124,37.38V23.63h3.81v3.91l-.54-1.15a4.47,4.47,0,0,1,2-2.21,6.71,6.71,0,0,1,3.3-.75v3.7a4.14,4.14,0,0,0-.45-.07l-.42,0a3.76,3.76,0,0,0-2.69.95,3.85,3.85,0,0,0-1,2.91v6.49Z"/><path class="cls-1" d="M135.68,21.72a2.58,2.58,0,0,1-1.81-.64,2.09,2.09,0,0,1-.69-1.59,2.07,2.07,0,0,1,.69-1.58,2.54,2.54,0,0,1,1.81-.64,2.68,2.68,0,0,1,1.8.6,1.94,1.94,0,0,1,.7,1.55,2.19,2.19,0,0,1-.69,1.65A2.54,2.54,0,0,1,135.68,21.72Zm-2,15.66V23.63h4V37.38Z"/><path class="cls-1" d="M140.38,37.38V19.49h8.13a11.2,11.2,0,0,1,5.13,1.12,8.48,8.48,0,0,1,3.48,3.11,8.77,8.77,0,0,1,1.25,4.72,8.74,8.74,0,0,1-1.25,4.71,8.43,8.43,0,0,1-3.48,3.12,11.33,11.33,0,0,1-5.13,1.11ZM144.55,34h3.75a6.73,6.73,0,0,0,3.11-.68,4.84,4.84,0,0,0,2-1.94,5.76,5.76,0,0,0,.73-2.95,5.79,5.79,0,0,0-.73-3,4.94,4.94,0,0,0-2-1.93,6.73,6.73,0,0,0-3.11-.67h-3.75Z"/><path class="cls-1" d="M157.86,37.38l7.95-17.89h4.09l8,17.89h-4.34L167,21.59h1.66L162.1,37.38Zm4-3.83,1-3.14h9.25l1.07,3.14Z"/><path class="cls-1" d="M182.21,37.38V22.87h-5.72V19.49h15.59v3.38h-5.73V37.38Z"/><path class="cls-1" d="M190.67,37.38l8-17.89h4.09l8,17.89h-4.34l-6.57-15.79h1.66l-6.57,15.79Zm4-3.83,1-3.14H205l1.07,3.14Z"/><path class="cls-1" d="M213,21.72a2.58,2.58,0,0,1-1.81-.64,2.09,2.09,0,0,1-.69-1.59,2.07,2.07,0,0,1,.69-1.58,2.54,2.54,0,0,1,1.81-.64,2.68,2.68,0,0,1,1.8.6,1.94,1.94,0,0,1,.7,1.55,2.19,2.19,0,0,1-.69,1.65A2.52,2.52,0,0,1,213,21.72Zm-2,15.66V23.63h4V37.38Z"/><path class="cls-1" d="M96.16,54.8v-6h.64v6Z"/><path class="cls-1" d="M100.71,50.25a2.13,2.13,0,0,1,1,.21,1.44,1.44,0,0,1,.65.64,2.19,2.19,0,0,1,.24,1.08V54.8H102V52.24a1.5,1.5,0,0,0-.36-1.08,1.33,1.33,0,0,0-1-.36,1.74,1.74,0,0,0-.84.19,1.41,1.41,0,0,0-.55.56,2,2,0,0,0-.19.88V54.8h-.61V50.29H99v1.24l-.1-.23a1.57,1.57,0,0,1,.69-.77A2.12,2.12,0,0,1,100.71,50.25Z"/><path class="cls-1" d="M106.31,50.25a2.13,2.13,0,0,1,1,.21,1.54,1.54,0,0,1,.65.64,2.19,2.19,0,0,1,.24,1.08V54.8h-.62V52.24a1.5,1.5,0,0,0-.35-1.08,1.35,1.35,0,0,0-1-.36,1.74,1.74,0,0,0-.84.19,1.35,1.35,0,0,0-.55.56,1.84,1.84,0,0,0-.19.88V54.8H104V50.29h.58v1.24l-.09-.23a1.59,1.59,0,0,1,.68-.77A2.15,2.15,0,0,1,106.31,50.25Z"/><path class="cls-1" d="M111.44,54.85a2.33,2.33,0,0,1-1.18-.3,2.2,2.2,0,0,1-.81-.82,2.36,2.36,0,0,1-.3-1.19,2.31,2.31,0,0,1,.3-1.19,2.1,2.1,0,0,1,.81-.81,2.57,2.57,0,0,1,2.37,0,2.2,2.2,0,0,1,.82.81,2.59,2.59,0,0,1,0,2.38,2.15,2.15,0,0,1-.82.82A2.36,2.36,0,0,1,111.44,54.85Zm0-.55a1.66,1.66,0,0,0,.87-.22,1.6,1.6,0,0,0,.6-.61,2.08,2.08,0,0,0,0-1.86,1.67,1.67,0,0,0-.6-.61,1.79,1.79,0,0,0-1.72,0,1.67,1.67,0,0,0-.6.61,2,2,0,0,0,0,1.86,1.62,1.62,0,0,0,1.45.83Z"/><path class="cls-1" d="M115.93,54.8l-2-4.51h.64l1.84,4.19h-.3L118,50.29h.6l-2,4.51Z"/><path class="cls-1" d="M120.49,54.85a2.16,2.16,0,0,1-.88-.17,1.27,1.27,0,0,1-.57-.47,1.19,1.19,0,0,1-.2-.68,1.28,1.28,0,0,1,.17-.64,1.11,1.11,0,0,1,.55-.46,2.44,2.44,0,0,1,1-.18h1.55v.46H120.6a1.3,1.3,0,0,0-.9.23.77.77,0,0,0,0,1.19,1.32,1.32,0,0,0,.85.23,1.58,1.58,0,0,0,.88-.23,1.36,1.36,0,0,0,.55-.69l.14.43a1.53,1.53,0,0,1-.6.71A2,2,0,0,1,120.49,54.85Zm1.56-.05v-1l0-.17V52a1.19,1.19,0,0,0-.32-.88,1.34,1.34,0,0,0-1-.31,2.31,2.31,0,0,0-.83.15,1.89,1.89,0,0,0-.67.38l-.28-.45a2.29,2.29,0,0,1,.83-.45,3.05,3.05,0,0,1,1-.16,1.92,1.92,0,0,1,1.35.43,1.69,1.69,0,0,1,.48,1.32v2.8Z"/><path class="cls-1" d="M123.37,50.8v-.51h2.79v.51Zm2.13,4.05a1.33,1.33,0,0,1-1-.35,1.3,1.3,0,0,1-.34-1V49.29h.61V53.5a.85.85,0,0,0,.2.61.76.76,0,0,0,.58.21,1,1,0,0,0,.67-.23l.21.44a1.07,1.07,0,0,1-.43.24A1.82,1.82,0,0,1,125.5,54.85Z"/><path class="cls-1" d="M127.66,49.29a.42.42,0,0,1-.32-.13.38.38,0,0,1-.13-.3.4.4,0,0,1,.13-.31.45.45,0,0,1,.32-.12.47.47,0,0,1,.32.12.41.41,0,0,1,.12.3.43.43,0,0,1-.12.31A.41.41,0,0,1,127.66,49.29Zm-.31,5.51V50.29H128V54.8Z"/><path class="cls-1" d="M131.29,54.85a2.28,2.28,0,0,1-1.18-.3,2.15,2.15,0,0,1-.82-.82,2.36,2.36,0,0,1-.3-1.19,2.31,2.31,0,0,1,.3-1.19,2.06,2.06,0,0,1,.82-.81,2.37,2.37,0,0,1,1.18-.29,2.47,2.47,0,0,1,1.19.29,2.25,2.25,0,0,1,.81.81,2.51,2.51,0,0,1,0,2.38,2.15,2.15,0,0,1-.82.82A2.33,2.33,0,0,1,131.29,54.85Zm0-.55a1.64,1.64,0,0,0,.86-.22,1.53,1.53,0,0,0,.6-.61,2.08,2.08,0,0,0,0-1.86,1.6,1.6,0,0,0-.6-.61,1.64,1.64,0,0,0-.86-.22,1.62,1.62,0,0,0-1.46.83,2.08,2.08,0,0,0,0,1.86,1.6,1.6,0,0,0,.6.61A1.62,1.62,0,0,0,131.29,54.3Z"/><path class="cls-1" d="M136.92,50.25a2.13,2.13,0,0,1,1,.21,1.44,1.44,0,0,1,.65.64,2.19,2.19,0,0,1,.24,1.08V54.8h-.61V52.24a1.5,1.5,0,0,0-.36-1.08,1.35,1.35,0,0,0-1-.36A1.74,1.74,0,0,0,136,51a1.41,1.41,0,0,0-.55.56,1.84,1.84,0,0,0-.19.88V54.8h-.61V50.29h.58v1.24l-.09-.23a1.57,1.57,0,0,1,.69-.77A2.12,2.12,0,0,1,136.92,50.25Z"/><path class="cls-1" d="M144.05,54.85a2.25,2.25,0,0,1-1.16-.3,2,2,0,0,1-.8-.81,2.37,2.37,0,0,1-.29-1.2,2.32,2.32,0,0,1,.29-1.2,2,2,0,0,1,.8-.8,2.25,2.25,0,0,1,1.16-.29,2.19,2.19,0,0,1,1.06.26,2,2,0,0,1,.75.78,2.65,2.65,0,0,1,.28,1.25,2.68,2.68,0,0,1-.28,1.25,1.92,1.92,0,0,1-.74.78A2,2,0,0,1,144.05,54.85Zm0-.55a1.64,1.64,0,0,0,.86-.22,1.56,1.56,0,0,0,.61-.61,2.08,2.08,0,0,0,0-1.86A1.62,1.62,0,0,0,145,51a1.77,1.77,0,0,0-1.71,0,1.67,1.67,0,0,0-.6.61,2.08,2.08,0,0,0,0,1.86,1.6,1.6,0,0,0,.6.61A1.63,1.63,0,0,0,144.09,54.3Zm1.7.5V53.44l.06-.91-.08-.91V48.43h.61V54.8Z"/><path class="cls-1" d="M147.86,54.8V50.29h.59v1.23l-.06-.22a1.48,1.48,0,0,1,.63-.78,2.12,2.12,0,0,1,1.11-.27v.59H150a1.45,1.45,0,0,0-1.12.44,1.74,1.74,0,0,0-.41,1.23v2.3Z"/><path class="cls-1" d="M151.4,49.29a.4.4,0,0,1-.31-.13.38.38,0,0,1-.13-.3.4.4,0,0,1,.13-.31.43.43,0,0,1,.31-.12.44.44,0,0,1,.32.12.38.38,0,0,1,.13.3.43.43,0,0,1-.45.44Zm-.31,5.51V50.29h.62V54.8Z"/><path class="cls-1" d="M154.35,54.8l-2-4.51H153l1.84,4.19h-.31l1.87-4.19h.6l-2,4.51Z"/><path class="cls-1" d="M158,49.29a.41.41,0,0,1-.32-.13.38.38,0,0,1-.13-.3.4.4,0,0,1,.13-.31.44.44,0,0,1,.32-.12.43.43,0,0,1,.31.12.38.38,0,0,1,.13.3.43.43,0,0,1-.12.31A.42.42,0,0,1,158,49.29Zm-.31,5.51V50.29h.61V54.8Z"/><path class="cls-1" d="M162,50.25a2.12,2.12,0,0,1,1,.21,1.51,1.51,0,0,1,.66.64,2.3,2.3,0,0,1,.23,1.08V54.8h-.61V52.24a1.54,1.54,0,0,0-.35-1.08,1.36,1.36,0,0,0-1-.36,1.68,1.68,0,0,0-.84.19,1.35,1.35,0,0,0-.55.56,1.84,1.84,0,0,0-.2.88V54.8h-.61V50.29h.59v1.24l-.1-.23a1.61,1.61,0,0,1,.69-.77A2.15,2.15,0,0,1,162,50.25Z"/><path class="cls-1" d="M167.14,54.63a2.37,2.37,0,0,1-1.16-.28,2.09,2.09,0,0,1-.81-.78,2.18,2.18,0,0,1,.81-3,2.48,2.48,0,0,1,1.16-.27,2.26,2.26,0,0,1,1.08.25,1.77,1.77,0,0,1,.77.74,2.67,2.67,0,0,1,0,2.38,1.85,1.85,0,0,1-.77.75A2.27,2.27,0,0,1,167.14,54.63Zm.11,1.88a3.88,3.88,0,0,1-1.18-.18,2.32,2.32,0,0,1-.92-.51l.31-.47a2.29,2.29,0,0,0,.78.45,2.8,2.8,0,0,0,1,.17,1.72,1.72,0,0,0,1.26-.4,1.67,1.67,0,0,0,.4-1.24V53.2l.09-.77-.06-.77V50.29h.58v4a2.3,2.3,0,0,1-.57,1.72A2.37,2.37,0,0,1,167.25,56.51Zm-.05-2.42a1.86,1.86,0,0,0,.89-.21,1.64,1.64,0,0,0,.61-.59,1.64,1.64,0,0,0-.61-2.3,2,2,0,0,0-1.77,0,1.55,1.55,0,0,0-.61.58,1.79,1.79,0,0,0,0,1.72,1.57,1.57,0,0,0,.61.59A1.84,1.84,0,0,0,167.2,54.09Z"/><path class="cls-1" d="M173.35,49.29a.42.42,0,0,1-.32-.13.38.38,0,0,1-.13-.3.4.4,0,0,1,.13-.31.45.45,0,0,1,.32-.12.47.47,0,0,1,.32.12.41.41,0,0,1,.12.3.43.43,0,0,1-.12.31A.41.41,0,0,1,173.35,49.29ZM173,54.8V50.29h.61V54.8Z"/><path class="cls-1" d="M180.77,50.25a2.06,2.06,0,0,1,1,.21,1.47,1.47,0,0,1,.64.64,2.31,2.31,0,0,1,.22,1.08V54.8H182V52.24a1.54,1.54,0,0,0-.34-1.08,1.23,1.23,0,0,0-.95-.36,1.62,1.62,0,0,0-.81.19,1.34,1.34,0,0,0-.52.56,2,2,0,0,0-.19.88V54.8h-.61V52.24a1.54,1.54,0,0,0-.34-1.08,1.27,1.27,0,0,0-1-.36,1.58,1.58,0,0,0-.8.19,1.3,1.3,0,0,0-.53.56,2,2,0,0,0-.19.88V54.8h-.61V50.29h.59v1.22l-.1-.21a1.57,1.57,0,0,1,.67-.77,2,2,0,0,1,1.09-.28,1.88,1.88,0,0,1,1.12.33,1.53,1.53,0,0,1,.6,1l-.24-.09a1.81,1.81,0,0,1,.7-.89A2.1,2.1,0,0,1,180.77,50.25Z"/><path class="cls-1" d="M184,56.47V50.29h.58v1.36l-.06.9.09.91v3Zm2.33-1.62a2,2,0,0,1-1.06-.28,2,2,0,0,1-.75-.78,2.54,2.54,0,0,1-.28-1.25,2.65,2.65,0,0,1,.27-1.25,2,2,0,0,1,.75-.78,2.38,2.38,0,0,1,2.22,0,2.14,2.14,0,0,1,.81.8,2.48,2.48,0,0,1,.29,1.2,2.42,2.42,0,0,1-.29,1.2,2.1,2.1,0,0,1-.81.81A2.22,2.22,0,0,1,186.37,54.85Zm-.05-.55a1.62,1.62,0,0,0,.86-.22,1.56,1.56,0,0,0,.61-.61,2,2,0,0,0,.22-.93,2,2,0,0,0-.22-.92,1.65,1.65,0,0,0-.61-.62,1.72,1.72,0,0,0-.86-.22,1.77,1.77,0,0,0-.86.22,1.7,1.7,0,0,0-.6.62,1.84,1.84,0,0,0-.22.92,1.88,1.88,0,0,0,.22.93,1.6,1.6,0,0,0,.6.61A1.67,1.67,0,0,0,186.32,54.3Z"/><path class="cls-1" d="M190.92,54.85a2.19,2.19,0,0,1-.88-.17,1.27,1.27,0,0,1-.57-.47,1.19,1.19,0,0,1-.2-.68,1.28,1.28,0,0,1,.17-.64,1.16,1.16,0,0,1,.55-.46,2.47,2.47,0,0,1,1-.18h1.55v.46H191a1.32,1.32,0,0,0-.9.23.73.73,0,0,0-.26.57.72.72,0,0,0,.31.62,1.31,1.31,0,0,0,.84.23,1.62,1.62,0,0,0,.89-.23,1.34,1.34,0,0,0,.54-.69l.14.43a1.42,1.42,0,0,1-.6.71A2,2,0,0,1,190.92,54.85Zm1.56-.05v-1l0-.17V52a1.19,1.19,0,0,0-.32-.88,1.31,1.31,0,0,0-1-.31,2.31,2.31,0,0,0-.83.15,1.89,1.89,0,0,0-.67.38l-.28-.45a2.29,2.29,0,0,1,.83-.45,3.1,3.1,0,0,1,1-.16,2,2,0,0,1,1.36.43,1.73,1.73,0,0,1,.47,1.32v2.8Z"/><path class="cls-1" d="M196.38,54.85a2.38,2.38,0,0,1-1.2-.3,2.18,2.18,0,0,1-.83-.82,2.51,2.51,0,0,1,0-2.38,2.09,2.09,0,0,1,.83-.81,2.48,2.48,0,0,1,1.2-.29,2.36,2.36,0,0,1,1,.22,1.69,1.69,0,0,1,.73.67l-.45.31a1.48,1.48,0,0,0-.58-.51,1.71,1.71,0,0,0-2.23.67,2,2,0,0,0-.22.93,1.94,1.94,0,0,0,.22.93,1.62,1.62,0,0,0,.61.61,1.83,1.83,0,0,0,1.62.06,1.46,1.46,0,0,0,.58-.5l.45.31a1.75,1.75,0,0,1-.73.67A2.37,2.37,0,0,1,196.38,54.85Z"/><path class="cls-1" d="M198.43,50.8v-.51h2.79v.51Zm2.13,4.05a1.21,1.21,0,0,1-1.33-1.32V49.29h.61V53.5a.85.85,0,0,0,.21.61.75.75,0,0,0,.58.21,1,1,0,0,0,.67-.23l.21.44a1.07,1.07,0,0,1-.43.24A1.82,1.82,0,0,1,200.56,54.85Z"/><path class="cls-1" d="M40.77,1A36.95,36.95,0,1,0,77.72,37.9,36.95,36.95,0,0,0,40.77,1ZM59.23,56.7H43.82V38a16.46,16.46,0,0,0-3.2,3.46l-.16.23A16.79,16.79,0,0,0,38.79,45a16.53,16.53,0,0,0-1.07,5.87v3.92A1.92,1.92,0,0,1,35.8,56.7H24.24a1.92,1.92,0,0,1-1.92-1.92V43.41a1.92,1.92,0,0,1,1.92-1.92h2.09c.32,0,.64,0,1,0s.65,0,1,0A16.45,16.45,0,0,0,37,38.4q.39-.27.75-.57A16.27,16.27,0,0,0,41,34.3H22.32V19.09H47A12.25,12.25,0,0,1,59.23,31.34Z"/><path d="M59.88,21.16V19.63h-.64v-.14h1.44v.14H60v1.53Zm1.07,0V19.49h.13l.83,1.31h-.07l.82-1.31h.14v1.67h-.16V19.73h0l-.77,1.21h-.08l-.78-1.21h.05v1.43Z"/></svg>