<svg id="Layer_1" data-name="Layer 1" xmlns="http://www.w3.org/2000/svg" xmlns:xlink="http://www.w3.org/1999/xlink" viewBox="0 0 79.37 79.37"><defs><style>.cls-1{fill:url(#White_Black);filter:url(#luminosity-invert);}.cls-2{fill:#ae272d;}.cls-3{mask:url(#mask);}.cls-4{fill:#fff;}</style><linearGradient id="White_Black" x1="58.17" y1="28.77" x2="28.82" y2="28.54" gradientUnits="userSpaceOnUse"><stop offset="0" stop-color="#fff"/><stop offset="1" stop-color="#231f20"/></linearGradient><filter id="luminosity-invert" filterUnits="userSpaceOnUse" color-interpolation-filters="sRGB"><feColorMatrix values="-1 0 0 0 1 0 -1 0 0 1 0 0 -1 0 1 0 0 0 1 0"/></filter><mask id="mask" x="11.87" y="20.23" width="34.17" height="16.62" maskUnits="userSpaceOnUse"><rect class="cls-1" x="11.87" y="20.23" width="34.17" height="16.62"/></mask></defs><circle class="cls-2" cx="39.69" cy="39.69" r="36.95"/><g class="cls-3"><path class="cls-4" d="M42.73,20.88v7a16.37,16.37,0,0,1-2.85,8.25H21.23V20.88Z"/></g><path class="cls-4" d="M42.73,25.66V20.88h3.16A12.25,12.25,0,0,1,58.14,33.13V58.49H42.73V39.82a16.46,16.46,0,0,0-3.2,3.46l-.16.23a16.79,16.79,0,0,0-1.67,3.27,16.53,16.53,0,0,0-1.07,5.87v3.92a1.92,1.92,0,0,1-1.92,1.92H23.15a1.92,1.92,0,0,1-1.92-1.92V45.2a1.92,1.92,0,0,1,1.92-1.92h2.09c.32,0,.64,0,1,0s.65,0,1,0a16.45,16.45,0,0,0,8.7-3.09q.39-.27.75-.57a16.58,16.58,0,0,0,6.1-11.78Z"/><path class="cls-4" d="M58.8,22.94V21.42h-.64v-.14H59.6v.14H59v1.52Zm1.06,0V21.28H60l.83,1.31h-.07l.83-1.31h.13v1.66h-.15V21.51h0l-.77,1.21h-.07L60,21.51H60v1.43Z"/></svg>