<svg id="Layer_1" data-name="Layer 1" xmlns="http://www.w3.org/2000/svg" viewBox="0 0 79.37 79.37"><defs><style>.cls-1{fill:#fff;}</style></defs><path class="cls-1" d="M39.69,2.73a37,37,0,1,0,37,37A37,37,0,0,0,39.69,2.73ZM58.14,58.49H42.73V39.82a16.46,16.46,0,0,0-3.2,3.46l-.16.23a16.79,16.79,0,0,0-1.67,3.27,16.53,16.53,0,0,0-1.07,5.87v3.92a1.92,1.92,0,0,1-1.92,1.92H23.15a1.92,1.92,0,0,1-1.92-1.92V45.2a1.92,1.92,0,0,1,1.92-1.92h2.09c.32,0,.64,0,1,0s.65,0,1,0a16.45,16.45,0,0,0,8.7-3.09q.39-.27.75-.57a16.27,16.27,0,0,0,3.25-3.53H21.23V20.88H45.89A12.25,12.25,0,0,1,58.14,33.13Z"/><path d="M58.8,22.94V21.42h-.64v-.14H59.6v.14H59v1.52Zm1.06,0V21.28H60l.83,1.31h-.07l.83-1.31h.13v1.66h-.15V21.51h0l-.77,1.21h-.07L60,21.51H60v1.43Z"/></svg>